<?xml version="1.0" standalone="no"?>
<!DOCTYPE svg PUBLIC "-//W3C//DTD SVG 20010904//EN"
 "http://www.w3.org/TR/2001/REC-SVG-20010904/DTD/svg10.dtd">
<svg version="1.0" xmlns="http://www.w3.org/2000/svg"
 width="512.000000pt" height="512.000000pt" viewBox="0 0 512.000000 512.000000"
 preserveAspectRatio="xMidYMid meet">
<metadata>
Created by potrace 1.16, written by Peter Selinger 2001-2019
</metadata>
<g transform="translate(0.000000,512.000000) scale(0.100000,-0.100000)"
fill="#000000" stroke="none">
<path d="M0 2560 l0 -2560 503 0 c495 0 502 0 473 19 -15 10 -37 32 -47 47
-18 28 -19 75 -19 1439 0 1364 1 1411 19 1439 10 15 32 37 47 47 28 18 77 19
1584 19 1507 0 1556 -1 1584 -19 15 -10 37 -32 47 -47 18 -28 19 -75 19 -1439
0 -1364 -1 -1411 -19 -1439 -10 -15 -32 -37 -47 -47 -29 -19 -22 -19 474 -19
l502 0 0 2560 0 2560 -2560 0 -2560 0 0 -2560z"/>
</g>
</svg>
