<?xml version="1.0" standalone="no"?>
<!DOCTYPE svg PUBLIC "-//W3C//DTD SVG 20010904//EN"
 "http://www.w3.org/TR/2001/REC-SVG-20010904/DTD/svg10.dtd">
<svg version="1.0" xmlns="http://www.w3.org/2000/svg"
 width="512.000000pt" height="512.000000pt" viewBox="0 0 512.000000 512.000000"
 preserveAspectRatio="xMidYMid meet">
<metadata>
Created by potrace 1.16, written by Peter Selinger 2001-2019
</metadata>
<g transform="translate(0.000000,512.000000) scale(0.100000,-0.100000)"
fill="#000000" stroke="none">
<path d="M1 3953 c1 -755 5 -1140 11 -1088 22 202 91 466 174 670 193 472 543
893 979 1178 318 207 684 341 1070 392 86 11 -60 13 -1067 14 l-1168 1 1
-1167z"/>
<path d="M2890 5104 c895 -114 1672 -702 2028 -1534 91 -211 157 -454 186
-676 12 -98 14 9 15 1059 l1 1167 -1167 -1 c-1028 -1 -1155 -3 -1063 -15z"/>
<path d="M2465 4676 c-157 -36 -275 -96 -371 -188 -33 -32 -54 -42 -110 -54
-95 -19 -165 -57 -228 -124 -63 -66 -99 -133 -128 -238 -31 -112 -31 -377 0
-550 l23 -124 101 -114 c56 -62 103 -113 104 -111 1 1 25 118 53 261 28 142
52 260 55 263 2 2 32 -3 67 -12 219 -57 550 -86 761 -67 73 7 182 23 243 37
60 14 112 22 116 17 4 -4 28 -118 54 -254 26 -137 51 -248 54 -248 3 0 51 50
105 111 93 104 101 116 113 173 17 83 36 302 30 342 -5 32 -3 35 91 98 53 36
110 77 125 91 l28 25 -60 68 c-228 253 -557 483 -822 573 -82 29 -109 33 -219
35 -81 2 -146 -1 -185 -10z"/>
<path d="M1 1168 l-1 -1168 1168 1 c642 1 1154 4 1137 6 -176 22 -463 79 -452
90 3 2 32 -3 65 -11 33 -9 65 -16 71 -16 8 0 11 243 11 875 l0 875 -419 0
c-243 0 -441 -4 -472 -10 -185 -35 -331 -186 -360 -372 -5 -34 -8 -203 -7
-375 l3 -312 -48 47 c-125 121 -307 375 -410 572 -138 262 -243 599 -275 885
-6 52 -10 -333 -11 -1087z m1759 -1037 c47 -16 80 -30 75 -30 -6 -1 -49 12
-95 28 -47 16 -80 30 -75 30 6 1 49 -12 95 -28z"/>
<path d="M5106 2253 c-23 -261 -134 -619 -273 -883 -103 -196 -286 -452 -407
-570 l-46 -44 0 327 c0 377 -7 428 -69 524 -44 68 -112 133 -170 162 -93 48
-128 51 -588 51 l-433 0 0 -884 0 -884 -137 -21 c-76 -11 -151 -22 -168 -24
-16 -2 495 -5 1138 -6 l1167 -1 0 1165 c0 641 -2 1165 -4 1165 -2 0 -6 -35
-10 -77z m-1799 -2149 c-3 -3 -12 -4 -19 -1 -8 3 -5 6 6 6 11 1 17 -2 13 -5z
m-70 -20 c-3 -3 -12 -4 -19 -1 -8 3 -5 6 6 6 11 1 17 -2 13 -5z m-40 -10 c-3
-3 -12 -4 -19 -1 -8 3 -5 6 6 6 11 1 17 -2 13 -5z m-40 -10 c-3 -3 -12 -4 -19
-1 -8 3 -5 6 6 6 11 1 17 -2 13 -5z"/>
</g>
</svg>
