<?xml version="1.0" standalone="no"?>
<!DOCTYPE svg PUBLIC "-//W3C//DTD SVG 20010904//EN"
 "http://www.w3.org/TR/2001/REC-SVG-20010904/DTD/svg10.dtd">
<svg version="1.0" xmlns="http://www.w3.org/2000/svg"
 width="512.000000pt" height="512.000000pt" viewBox="0 0 512.000000 512.000000"
 preserveAspectRatio="xMidYMid meet">
<metadata>
Created by potrace 1.16, written by Peter Selinger 2001-2019
</metadata>
<g transform="translate(0.000000,512.000000) scale(0.100000,-0.100000)"
fill="#000000" stroke="none">
<path d="M1 3953 c1 -755 5 -1140 11 -1088 22 202 91 466 174 670 193 472 543
893 979 1178 318 207 684 341 1070 392 86 11 -60 13 -1067 14 l-1168 1 1
-1167z"/>
<path d="M2890 5104 c895 -114 1672 -702 2028 -1534 91 -211 157 -454 186
-676 12 -98 14 9 15 1059 l1 1167 -1167 -1 c-1028 -1 -1155 -3 -1063 -15z"/>
<path d="M2455 4680 c-185 -12 -325 -49 -479 -128 -316 -162 -539 -453 -617
-809 -20 -91 -22 -133 -26 -585 l-5 -488 279 0 280 0 -13 73 c-44 246 -40 511
10 709 79 310 289 538 580 627 37 12 73 21 80 21 6 0 19 -33 28 -73 46 -190
161 -338 337 -432 151 -81 232 -185 285 -366 34 -120 50 -269 44 -426 l-5
-133 263 0 264 0 0 463 c0 510 -6 582 -59 744 -74 225 -220 428 -414 574 -154
116 -388 210 -560 224 -144 11 -164 12 -272 5z"/>
<path d="M1 1168 l-1 -1168 1173 1 c704 1 1142 5 1097 10 -130 15 -337 58
-468 99 -129 40 -257 89 -234 90 10 0 12 76 10 363 l-3 362 -162 3 -163 2 0
-286 c0 -249 -2 -285 -15 -280 -8 3 -54 32 -103 64 -267 180 -523 436 -701
700 -219 326 -366 717 -415 1102 -12 92 -14 -37 -15 -1062z"/>
<path d="M5110 2299 c0 -61 -32 -246 -65 -374 -91 -356 -260 -693 -492 -980
-66 -82 -189 -212 -144 -153 10 14 12 81 9 315 -4 279 -6 302 -27 363 -60 169
-177 288 -345 349 -68 24 -81 25 -342 29 l-271 4 -7 -85 c-23 -283 -152 -515
-372 -667 -128 -88 -263 -137 -431 -155 l-63 -7 0 -469 0 -469 1280 0 1280 0
0 1165 c0 641 -2 1165 -5 1165 -3 0 -5 -14 -5 -31z"/>
</g>
</svg>
